# xmcd
#
# Track frame offsets: 
#        151
#        15698
#        32593
#        50796
#        67434
#        85587
#        101768
#        118988
#        139527
#        155887
#        173407
#        192195
#        210247
#        225779
#        241773
#
# Disc length: 3484 seconds
#
# Revision: 18
# Processed by: cddbd v1.5.2PL0 Copyright (c) Steve Scherf et al.
# Submitted via: ExactAudioCopy v0.95b4
#
DISCID=c20d9a0f
DTITLE=Blue - One Love
DYEAR=2002
DGENRE=Pop
TTITLE0=One Love
TTITLE1=Riders
TTITLE2=Flexin'
TTITLE3=Sorry Seems To Be The Hardest Word (Feat. Elton John)
TTITLE4=She Told Me
TTITLE5=Right Here Waiting
TTITLE6=U Make Me Wanna
TTITLE7=Ain't Got You
TTITLE8=Supersexual
TTITLE9=Don't Treat Me Like A Fool
TTITLE10=Get Down
TTITLE11=Privacy
TTITLE12=Without You
TTITLE13=Invitation
TTITLE14=Like A Friend
EXTD=YEAR: 2002
EXTT0=
EXTT1=
EXTT2=
EXTT3=
EXTT4=
EXTT5=
EXTT6=
EXTT7=
EXTT8=
EXTT9=
EXTT10=
EXTT11=
EXTT12=
EXTT13=
EXTT14=
PLAYORDER=
